<svg width="51" height="64" viewBox="0 0 51 64" fill="none" xmlns="http://www.w3.org/2000/svg">
<path d="M13.3125 0.149998C12.7875 0.450001 12.7625 0.612499 12.75 2.9125V5.125L6.36247 32.25C2.41247 49.075 -2.73008e-05 59.55 0.0249727 59.8375C0.0499727 60.15 0.162473 60.3625 0.374973 60.525C0.699973 60.7625 11.2875 64 11.7375 64C11.875 64 12.125 63.875 12.3 63.7125C12.525 63.525 14.775 58.3875 20.075 46C24.1875 36.4125 27.575 28.525 27.6125 28.475C27.6875 28.3875 32.375 39.175 32.375 39.4125C32.375 39.4625 31.225 39.5 29.8125 39.5C27.25 39.5 27.2375 39.5 26.9375 39.8125L26.625 40.1125V45.3V50.4875L26.9125 50.8125C27.1625 51.1 27.625 51.2125 32.7875 52.25C36.6875 53.025 38.4625 53.3375 38.6625 53.2625C38.8125 53.2 41.3875 50.95 44.375 48.2625C48.8 44.2875 49.8375 43.2875 49.975 42.9125C50.1 42.5625 50.125 41.8375 50.1 40.25L50.05 38.0625L46.375 21.9375L42.7 5.8125L42.6375 3.2125L42.5625 0.599998L42.2125 0.299999L41.8625 0H27.7125C17.3 0.0125008 13.5 0.0499992 13.3125 0.149998ZM19.125 3.1875V4.25H17H14.875V3.1875V2.125H17H19.125V3.1875ZM24.5 3.1875V4.25H22.875H21.25V3.1875V2.125H22.875H24.5V3.1875ZM28.75 3.1875V4.25H27.6875H26.625V3.1875V2.125H27.6875H28.75V3.1875ZM34.1 3.2125L34.1375 4.25H32.5H30.875V3.1875V2.1125L32.475 2.15L34.0625 2.1875L34.1 3.2125ZM40.5 3.1875V4.25H38.375H36.25V3.1875V2.125H38.375H40.5V3.1875ZM19.125 7.775C19.125 9.4375 18.875 10.1375 18.025 10.9C17.3125 11.5375 16.5125 11.75 14.7875 11.75C13.4875 11.75 13.3625 11.725 13.425 11.525C13.5 11.3 14.625 6.5 14.625 6.425C14.625 6.4 15.6375 6.375 16.875 6.375H19.125V7.775ZM26.625 15.8375V25.3125L18.8625 43.4375C14.5875 53.4 11.0875 61.575 11.075 61.5875C11.0375 61.6375 2.59997 59.125 2.42497 59.0125C2.32497 58.9625 3.96247 51.8 7.57497 36.4375C10.4875 24.0625 12.875 13.925 12.875 13.9C12.875 13.8875 13.625 13.875 14.55 13.875C17.225 13.875 18.3125 13.55 19.575 12.35C20.8 11.1875 21.25 9.95 21.25 7.6875V6.375H23.9375H26.625V15.8375ZM30.875 14.6625V22.95L30.225 23.4375C29.8625 23.7 29.375 24.05 29.1625 24.225L28.75 24.525V15.45V6.375H29.8125H30.875V14.6625ZM34.1375 8.125C34.225 10.0625 34.325 10.4625 35 11.4625C35.5625 12.3125 36.2375 12.9 37.1625 13.325C38.1 13.75 38.925 13.875 40.7625 13.875C42.325 13.875 42.375 13.8875 42.4375 14.15C43.875 20.25 47.875 38.425 47.875 38.875V39.5H41.325H34.775L32.075 33.2C30.5875 29.7375 29.375 26.85 29.375 26.7875C29.3875 26.7375 30.1125 26.15 30.9875 25.5C31.875 24.85 32.6875 24.1625 32.8 23.975C32.975 23.6875 33 22.6875 33 15V6.3625L33.5375 6.4L34.0625 6.4375L34.1375 8.125ZM41.275 9C41.6 10.4125 41.8625 11.6125 41.8625 11.675C41.875 11.725 41.125 11.7625 40.225 11.725C38.675 11.6875 38.5125 11.65 37.9 11.325C36.625 10.625 36.25 9.825 36.25 7.8125V6.375L38.4625 6.4L40.6875 6.4375L41.275 9ZM47.875 41.9375C47.875 42.1875 46.9125 43.1125 42.95 46.6875L38.025 51.125L33.6625 50.25C31.275 49.775 29.1875 49.35 29.0375 49.3125L28.75 49.25V45.4375V41.625H38.3125H47.875V41.9375Z" fill="#8F8F8F"/>
</svg>
