<svg width="61" height="60" viewBox="0 0 61 60" fill="none" xmlns="http://www.w3.org/2000/svg">
<mask id="path-1-outside-1_309_924" maskUnits="userSpaceOnUse" x="-0.186035" y="-0.25" width="61" height="61" fill="black">
<rect fill="white" x="-0.186035" y="-0.25" width="61" height="61"/>
<path d="M27.1365 0.509712C20.4765 1.3702 14.7347 4.19587 10.1436 8.8937C8.69076 10.3705 7.91202 11.3356 6.77297 13.0682C5.14575 15.5102 3.85559 18.4405 3.13496 21.3243C2.48408 23.9174 2.33298 25.2779 2.3446 28.4176C2.3446 30.8595 2.61193 35.5341 2.7979 36.5573C2.85601 36.8713 2.82114 36.9294 2.47245 37.1039C1.85643 37.3946 1.40314 37.8248 1.12418 38.4062C0.577901 39.4877 0.577901 39.4412 2.58868 48.3833C4.65758 57.6045 4.58784 57.4068 5.73852 58.0929C6.62187 58.6278 7.16815 58.6743 8.64427 58.372C9.57411 58.1743 9.87631 58.1394 9.9228 58.2557C10.0274 58.5697 10.7945 59.2906 11.2595 59.5115C11.9917 59.872 13.0261 59.8255 15.1183 59.3604C17.1291 58.9069 17.3964 58.7906 18.0008 58.1278C18.5819 57.4882 18.7795 56.9766 18.7795 56.1742C18.7795 55.3137 14.2349 34.9759 13.8979 34.3131C13.5608 33.6619 12.7937 33.034 12.0266 32.813C11.457 32.6502 11.2943 32.6502 10.4923 32.8014L9.60898 32.9642L9.50438 31.8595C9.33003 29.8013 9.39977 25.5105 9.62061 24.3244C10.7597 18.2428 14.3047 13.1729 19.6164 9.98675C23.2312 7.82389 27.8106 6.75409 32.0414 7.07969C39.7591 7.6611 46.4191 12.1147 49.6851 18.8824C51.3937 22.4174 51.9051 25.3477 51.661 30.1618C51.5913 31.627 51.5099 32.8596 51.4867 32.9061C51.4518 32.941 51.0334 32.8944 50.5336 32.8014C49.72 32.6502 49.5689 32.6502 48.9878 32.813C48.2206 33.034 47.4535 33.6619 47.1164 34.3131C46.7794 34.9759 42.2348 55.3137 42.2348 56.1742C42.2348 56.9417 42.4324 57.465 42.9322 58.0464C43.5366 58.7208 43.9782 58.9185 45.8844 59.3487C48.023 59.8255 49.0226 59.872 49.7549 59.5115C50.2198 59.2906 50.9869 58.5697 51.0915 58.2557C51.138 58.1394 51.4402 58.1743 52.37 58.372C53.8462 58.6743 54.3925 58.6278 55.2758 58.0929C56.4149 57.4068 56.3684 57.5812 58.3791 48.674C60.3783 39.8016 60.4364 39.4412 59.9018 38.4179C59.6344 37.9062 59.1114 37.3946 58.4605 37.0225C58.2862 36.9178 58.2745 36.7899 58.3908 35.6271C58.8441 30.906 58.8557 25.8826 58.4024 23.3593C56.5543 12.9054 48.8367 4.41681 38.4689 1.41672C35.9467 0.695763 34.0638 0.428314 31.0302 0.381802C29.2402 0.358543 27.9617 0.393433 27.1365 0.509712ZM33.9592 2.02139C44.1991 3.35864 52.6722 10.1844 55.9267 19.6964C57.3098 23.7895 57.5655 27.3012 56.996 34.5224C56.8333 36.6039 56.8333 36.6039 56.3451 36.4759C56.0197 36.3945 55.9616 36.3248 55.9616 36.0341C55.9616 35.0922 54.9271 33.8596 53.8578 33.5456C53.5207 33.441 53.172 33.3596 53.0907 33.3596C52.9628 33.3596 52.9396 33.2084 52.9861 32.6851C53.1488 30.906 53.1837 30.2199 53.172 28.0687C53.172 26.5803 53.1139 25.3244 52.9977 24.5919C52.4514 21.022 51.0334 17.58 48.9064 14.6962C47.8719 13.3008 45.3497 10.8124 43.9899 9.84721C40.8749 7.63784 37.4461 6.26571 33.7267 5.74244C32.146 5.5215 28.9962 5.5215 27.3573 5.75406C17.8962 7.06806 10.1669 14.2194 8.31883 23.3244C7.81904 25.7663 7.76092 27.4989 8.03988 32.1037C8.09799 33.1619 8.08637 33.3596 7.93527 33.3596C7.84228 33.3596 7.50522 33.441 7.17977 33.534C6.12208 33.848 5.05276 35.0922 5.05276 36.0224C5.05276 36.3597 4.89004 36.4992 4.48323 36.4992C4.30889 36.4992 4.2624 36.3597 4.20428 35.7782C3.97182 33.4526 3.85559 30.9874 3.84397 28.4176C3.83234 25.2082 3.9602 24.1267 4.61109 21.5569C6.77297 13.1148 13.3748 6.06802 21.8015 3.24236C23.6496 2.62606 26.0207 2.10278 27.8339 1.92836C29.0543 1.80045 32.7155 1.85859 33.9592 2.02139ZM11.9917 34.4061C12.2009 34.5224 12.445 34.7433 12.538 34.8945C12.631 35.0457 13.7584 39.9063 15.0602 45.6972L17.408 56.2324L17.1872 56.6742C17.071 56.9184 16.8385 57.2208 16.6758 57.3371C16.269 57.6278 12.7821 58.3952 12.2823 58.3022C12.0731 58.2673 11.736 58.0929 11.5384 57.9068C11.1316 57.5464 11.3757 58.558 8.13286 43.9878L6.41265 36.2899L6.63349 35.848C6.76134 35.6038 6.98218 35.3131 7.1449 35.1968C7.43548 34.9875 10.6318 34.1968 11.2711 34.1852C11.4687 34.1735 11.7825 34.2782 11.9917 34.4061ZM51.754 34.5805C52.7536 34.8015 53.7067 35.0806 53.8694 35.1968C54.0321 35.3131 54.253 35.6038 54.3808 35.848L54.6017 36.2899L52.8931 43.9297C49.5457 58.9418 49.8827 57.5464 49.4759 57.9068C49.2783 58.0813 48.9413 58.2673 48.732 58.3022C48.2323 58.3952 44.7453 57.6278 44.3385 57.3371C44.1758 57.2208 43.9434 56.9184 43.8271 56.6742L43.6063 56.2324L45.9541 45.6972C47.2559 39.9063 48.3834 35.0457 48.4763 34.8945C48.6972 34.5573 49.3132 34.1735 49.6619 34.1735C49.813 34.1735 50.7544 34.3596 51.754 34.5805ZM5.32009 38.2086C5.35496 38.3946 6.2848 42.5343 7.37736 47.4298C8.46993 52.3253 9.37652 56.4068 9.38815 56.4998C9.41139 56.6742 8.12124 57.058 7.40061 57.0696C6.8892 57.0812 6.2848 56.7905 6.04072 56.4184C5.8315 56.1045 2.26324 40.3482 2.26324 39.7435C2.26324 39.29 2.62355 38.6853 3.00711 38.4876C3.25119 38.3481 4.76219 37.9411 5.1225 37.9062C5.19224 37.8946 5.28522 38.0341 5.32009 38.2086ZM56.8682 38.1272C57.4028 38.2551 57.9491 38.4411 58.0769 38.5341C58.4605 38.79 58.7511 39.3132 58.7511 39.7319C58.7511 40.3249 55.1828 56.1045 54.9736 56.4184C54.7295 56.7905 54.1251 57.0812 53.6137 57.0696C52.8931 57.058 51.6029 56.6742 51.6262 56.4998C51.6378 56.4068 52.5444 52.3253 53.637 47.4298C54.7295 42.5343 55.6594 38.3946 55.6942 38.2086C55.7291 38.0341 55.7872 37.8946 55.8337 37.8946C55.8686 37.8946 56.3451 37.9992 56.8682 38.1272Z"/>
</mask>
<path d="M27.1365 0.509712C20.4765 1.3702 14.7347 4.19587 10.1436 8.8937C8.69076 10.3705 7.91202 11.3356 6.77297 13.0682C5.14575 15.5102 3.85559 18.4405 3.13496 21.3243C2.48408 23.9174 2.33298 25.2779 2.3446 28.4176C2.3446 30.8595 2.61193 35.5341 2.7979 36.5573C2.85601 36.8713 2.82114 36.9294 2.47245 37.1039C1.85643 37.3946 1.40314 37.8248 1.12418 38.4062C0.577901 39.4877 0.577901 39.4412 2.58868 48.3833C4.65758 57.6045 4.58784 57.4068 5.73852 58.0929C6.62187 58.6278 7.16815 58.6743 8.64427 58.372C9.57411 58.1743 9.87631 58.1394 9.9228 58.2557C10.0274 58.5697 10.7945 59.2906 11.2595 59.5115C11.9917 59.872 13.0261 59.8255 15.1183 59.3604C17.1291 58.9069 17.3964 58.7906 18.0008 58.1278C18.5819 57.4882 18.7795 56.9766 18.7795 56.1742C18.7795 55.3137 14.2349 34.9759 13.8979 34.3131C13.5608 33.6619 12.7937 33.034 12.0266 32.813C11.457 32.6502 11.2943 32.6502 10.4923 32.8014L9.60898 32.9642L9.50438 31.8595C9.33003 29.8013 9.39977 25.5105 9.62061 24.3244C10.7597 18.2428 14.3047 13.1729 19.6164 9.98675C23.2312 7.82389 27.8106 6.75409 32.0414 7.07969C39.7591 7.6611 46.4191 12.1147 49.6851 18.8824C51.3937 22.4174 51.9051 25.3477 51.661 30.1618C51.5913 31.627 51.5099 32.8596 51.4867 32.9061C51.4518 32.941 51.0334 32.8944 50.5336 32.8014C49.72 32.6502 49.5689 32.6502 48.9878 32.813C48.2206 33.034 47.4535 33.6619 47.1164 34.3131C46.7794 34.9759 42.2348 55.3137 42.2348 56.1742C42.2348 56.9417 42.4324 57.465 42.9322 58.0464C43.5366 58.7208 43.9782 58.9185 45.8844 59.3487C48.023 59.8255 49.0226 59.872 49.7549 59.5115C50.2198 59.2906 50.9869 58.5697 51.0915 58.2557C51.138 58.1394 51.4402 58.1743 52.37 58.372C53.8462 58.6743 54.3925 58.6278 55.2758 58.0929C56.4149 57.4068 56.3684 57.5812 58.3791 48.674C60.3783 39.8016 60.4364 39.4412 59.9018 38.4179C59.6344 37.9062 59.1114 37.3946 58.4605 37.0225C58.2862 36.9178 58.2745 36.7899 58.3908 35.6271C58.8441 30.906 58.8557 25.8826 58.4024 23.3593C56.5543 12.9054 48.8367 4.41681 38.4689 1.41672C35.9467 0.695763 34.0638 0.428314 31.0302 0.381802C29.2402 0.358543 27.9617 0.393433 27.1365 0.509712ZM33.9592 2.02139C44.1991 3.35864 52.6722 10.1844 55.9267 19.6964C57.3098 23.7895 57.5655 27.3012 56.996 34.5224C56.8333 36.6039 56.8333 36.6039 56.3451 36.4759C56.0197 36.3945 55.9616 36.3248 55.9616 36.0341C55.9616 35.0922 54.9271 33.8596 53.8578 33.5456C53.5207 33.441 53.172 33.3596 53.0907 33.3596C52.9628 33.3596 52.9396 33.2084 52.9861 32.6851C53.1488 30.906 53.1837 30.2199 53.172 28.0687C53.172 26.5803 53.1139 25.3244 52.9977 24.5919C52.4514 21.022 51.0334 17.58 48.9064 14.6962C47.8719 13.3008 45.3497 10.8124 43.9899 9.84721C40.8749 7.63784 37.4461 6.26571 33.7267 5.74244C32.146 5.5215 28.9962 5.5215 27.3573 5.75406C17.8962 7.06806 10.1669 14.2194 8.31883 23.3244C7.81904 25.7663 7.76092 27.4989 8.03988 32.1037C8.09799 33.1619 8.08637 33.3596 7.93527 33.3596C7.84228 33.3596 7.50522 33.441 7.17977 33.534C6.12208 33.848 5.05276 35.0922 5.05276 36.0224C5.05276 36.3597 4.89004 36.4992 4.48323 36.4992C4.30889 36.4992 4.2624 36.3597 4.20428 35.7782C3.97182 33.4526 3.85559 30.9874 3.84397 28.4176C3.83234 25.2082 3.9602 24.1267 4.61109 21.5569C6.77297 13.1148 13.3748 6.06802 21.8015 3.24236C23.6496 2.62606 26.0207 2.10278 27.8339 1.92836C29.0543 1.80045 32.7155 1.85859 33.9592 2.02139ZM11.9917 34.4061C12.2009 34.5224 12.445 34.7433 12.538 34.8945C12.631 35.0457 13.7584 39.9063 15.0602 45.6972L17.408 56.2324L17.1872 56.6742C17.071 56.9184 16.8385 57.2208 16.6758 57.3371C16.269 57.6278 12.7821 58.3952 12.2823 58.3022C12.0731 58.2673 11.736 58.0929 11.5384 57.9068C11.1316 57.5464 11.3757 58.558 8.13286 43.9878L6.41265 36.2899L6.63349 35.848C6.76134 35.6038 6.98218 35.3131 7.1449 35.1968C7.43548 34.9875 10.6318 34.1968 11.2711 34.1852C11.4687 34.1735 11.7825 34.2782 11.9917 34.4061ZM51.754 34.5805C52.7536 34.8015 53.7067 35.0806 53.8694 35.1968C54.0321 35.3131 54.253 35.6038 54.3808 35.848L54.6017 36.2899L52.8931 43.9297C49.5457 58.9418 49.8827 57.5464 49.4759 57.9068C49.2783 58.0813 48.9413 58.2673 48.732 58.3022C48.2323 58.3952 44.7453 57.6278 44.3385 57.3371C44.1758 57.2208 43.9434 56.9184 43.8271 56.6742L43.6063 56.2324L45.9541 45.6972C47.2559 39.9063 48.3834 35.0457 48.4763 34.8945C48.6972 34.5573 49.3132 34.1735 49.6619 34.1735C49.813 34.1735 50.7544 34.3596 51.754 34.5805ZM5.32009 38.2086C5.35496 38.3946 6.2848 42.5343 7.37736 47.4298C8.46993 52.3253 9.37652 56.4068 9.38815 56.4998C9.41139 56.6742 8.12124 57.058 7.40061 57.0696C6.8892 57.0812 6.2848 56.7905 6.04072 56.4184C5.8315 56.1045 2.26324 40.3482 2.26324 39.7435C2.26324 39.29 2.62355 38.6853 3.00711 38.4876C3.25119 38.3481 4.76219 37.9411 5.1225 37.9062C5.19224 37.8946 5.28522 38.0341 5.32009 38.2086ZM56.8682 38.1272C57.4028 38.2551 57.9491 38.4411 58.0769 38.5341C58.4605 38.79 58.7511 39.3132 58.7511 39.7319C58.7511 40.3249 55.1828 56.1045 54.9736 56.4184C54.7295 56.7905 54.1251 57.0812 53.6137 57.0696C52.8931 57.058 51.6029 56.6742 51.6262 56.4998C51.6378 56.4068 52.5444 52.3253 53.637 47.4298C54.7295 42.5343 55.6594 38.3946 55.6942 38.2086C55.7291 38.0341 55.7872 37.8946 55.8337 37.8946C55.8686 37.8946 56.3451 37.9992 56.8682 38.1272Z" fill="#8F8F8F"/>
<path d="M27.1365 0.509712C20.4765 1.3702 14.7347 4.19587 10.1436 8.8937C8.69076 10.3705 7.91202 11.3356 6.77297 13.0682C5.14575 15.5102 3.85559 18.4405 3.13496 21.3243C2.48408 23.9174 2.33298 25.2779 2.3446 28.4176C2.3446 30.8595 2.61193 35.5341 2.7979 36.5573C2.85601 36.8713 2.82114 36.9294 2.47245 37.1039C1.85643 37.3946 1.40314 37.8248 1.12418 38.4062C0.577901 39.4877 0.577901 39.4412 2.58868 48.3833C4.65758 57.6045 4.58784 57.4068 5.73852 58.0929C6.62187 58.6278 7.16815 58.6743 8.64427 58.372C9.57411 58.1743 9.87631 58.1394 9.9228 58.2557C10.0274 58.5697 10.7945 59.2906 11.2595 59.5115C11.9917 59.872 13.0261 59.8255 15.1183 59.3604C17.1291 58.9069 17.3964 58.7906 18.0008 58.1278C18.5819 57.4882 18.7795 56.9766 18.7795 56.1742C18.7795 55.3137 14.2349 34.9759 13.8979 34.3131C13.5608 33.6619 12.7937 33.034 12.0266 32.813C11.457 32.6502 11.2943 32.6502 10.4923 32.8014L9.60898 32.9642L9.50438 31.8595C9.33003 29.8013 9.39977 25.5105 9.62061 24.3244C10.7597 18.2428 14.3047 13.1729 19.6164 9.98675C23.2312 7.82389 27.8106 6.75409 32.0414 7.07969C39.7591 7.6611 46.4191 12.1147 49.6851 18.8824C51.3937 22.4174 51.9051 25.3477 51.661 30.1618C51.5913 31.627 51.5099 32.8596 51.4867 32.9061C51.4518 32.941 51.0334 32.8944 50.5336 32.8014C49.72 32.6502 49.5689 32.6502 48.9878 32.813C48.2206 33.034 47.4535 33.6619 47.1164 34.3131C46.7794 34.9759 42.2348 55.3137 42.2348 56.1742C42.2348 56.9417 42.4324 57.465 42.9322 58.0464C43.5366 58.7208 43.9782 58.9185 45.8844 59.3487C48.023 59.8255 49.0226 59.872 49.7549 59.5115C50.2198 59.2906 50.9869 58.5697 51.0915 58.2557C51.138 58.1394 51.4402 58.1743 52.37 58.372C53.8462 58.6743 54.3925 58.6278 55.2758 58.0929C56.4149 57.4068 56.3684 57.5812 58.3791 48.674C60.3783 39.8016 60.4364 39.4412 59.9018 38.4179C59.6344 37.9062 59.1114 37.3946 58.4605 37.0225C58.2862 36.9178 58.2745 36.7899 58.3908 35.6271C58.8441 30.906 58.8557 25.8826 58.4024 23.3593C56.5543 12.9054 48.8367 4.41681 38.4689 1.41672C35.9467 0.695763 34.0638 0.428314 31.0302 0.381802C29.2402 0.358543 27.9617 0.393433 27.1365 0.509712ZM33.9592 2.02139C44.1991 3.35864 52.6722 10.1844 55.9267 19.6964C57.3098 23.7895 57.5655 27.3012 56.996 34.5224C56.8333 36.6039 56.8333 36.6039 56.3451 36.4759C56.0197 36.3945 55.9616 36.3248 55.9616 36.0341C55.9616 35.0922 54.9271 33.8596 53.8578 33.5456C53.5207 33.441 53.172 33.3596 53.0907 33.3596C52.9628 33.3596 52.9396 33.2084 52.9861 32.6851C53.1488 30.906 53.1837 30.2199 53.172 28.0687C53.172 26.5803 53.1139 25.3244 52.9977 24.5919C52.4514 21.022 51.0334 17.58 48.9064 14.6962C47.8719 13.3008 45.3497 10.8124 43.9899 9.84721C40.8749 7.63784 37.4461 6.26571 33.7267 5.74244C32.146 5.5215 28.9962 5.5215 27.3573 5.75406C17.8962 7.06806 10.1669 14.2194 8.31883 23.3244C7.81904 25.7663 7.76092 27.4989 8.03988 32.1037C8.09799 33.1619 8.08637 33.3596 7.93527 33.3596C7.84228 33.3596 7.50522 33.441 7.17977 33.534C6.12208 33.848 5.05276 35.0922 5.05276 36.0224C5.05276 36.3597 4.89004 36.4992 4.48323 36.4992C4.30889 36.4992 4.2624 36.3597 4.20428 35.7782C3.97182 33.4526 3.85559 30.9874 3.84397 28.4176C3.83234 25.2082 3.9602 24.1267 4.61109 21.5569C6.77297 13.1148 13.3748 6.06802 21.8015 3.24236C23.6496 2.62606 26.0207 2.10278 27.8339 1.92836C29.0543 1.80045 32.7155 1.85859 33.9592 2.02139ZM11.9917 34.4061C12.2009 34.5224 12.445 34.7433 12.538 34.8945C12.631 35.0457 13.7584 39.9063 15.0602 45.6972L17.408 56.2324L17.1872 56.6742C17.071 56.9184 16.8385 57.2208 16.6758 57.3371C16.269 57.6278 12.7821 58.3952 12.2823 58.3022C12.0731 58.2673 11.736 58.0929 11.5384 57.9068C11.1316 57.5464 11.3757 58.558 8.13286 43.9878L6.41265 36.2899L6.63349 35.848C6.76134 35.6038 6.98218 35.3131 7.1449 35.1968C7.43548 34.9875 10.6318 34.1968 11.2711 34.1852C11.4687 34.1735 11.7825 34.2782 11.9917 34.4061ZM51.754 34.5805C52.7536 34.8015 53.7067 35.0806 53.8694 35.1968C54.0321 35.3131 54.253 35.6038 54.3808 35.848L54.6017 36.2899L52.8931 43.9297C49.5457 58.9418 49.8827 57.5464 49.4759 57.9068C49.2783 58.0813 48.9413 58.2673 48.732 58.3022C48.2323 58.3952 44.7453 57.6278 44.3385 57.3371C44.1758 57.2208 43.9434 56.9184 43.8271 56.6742L43.6063 56.2324L45.9541 45.6972C47.2559 39.9063 48.3834 35.0457 48.4763 34.8945C48.6972 34.5573 49.3132 34.1735 49.6619 34.1735C49.813 34.1735 50.7544 34.3596 51.754 34.5805ZM5.32009 38.2086C5.35496 38.3946 6.2848 42.5343 7.37736 47.4298C8.46993 52.3253 9.37652 56.4068 9.38815 56.4998C9.41139 56.6742 8.12124 57.058 7.40061 57.0696C6.8892 57.0812 6.2848 56.7905 6.04072 56.4184C5.8315 56.1045 2.26324 40.3482 2.26324 39.7435C2.26324 39.29 2.62355 38.6853 3.00711 38.4876C3.25119 38.3481 4.76219 37.9411 5.1225 37.9062C5.19224 37.8946 5.28522 38.0341 5.32009 38.2086ZM56.8682 38.1272C57.4028 38.2551 57.9491 38.4411 58.0769 38.5341C58.4605 38.79 58.7511 39.3132 58.7511 39.7319C58.7511 40.3249 55.1828 56.1045 54.9736 56.4184C54.7295 56.7905 54.1251 57.0812 53.6137 57.0696C52.8931 57.058 51.6029 56.6742 51.6262 56.4998C51.6378 56.4068 52.5444 52.3253 53.637 47.4298C54.7295 42.5343 55.6594 38.3946 55.6942 38.2086C55.7291 38.0341 55.7872 37.8946 55.8337 37.8946C55.8686 37.8946 56.3451 37.9992 56.8682 38.1272Z" stroke="#8F8F8F" stroke-width="0.25" mask="url(#path-1-outside-1_309_924)"/>
</svg>
