<svg width="64" height="64" viewBox="0 0 64 64" fill="none" xmlns="http://www.w3.org/2000/svg">
<path id="Vector" d="M42.2 0.199974C40.9375 0.599972 39.95 1.52497 39.5125 2.68747C39.3 3.26247 39.275 3.64997 39.275 5.88748C39.2875 8.12498 39.2625 8.56248 39.025 9.39998C38.5625 11.1125 37.925 12.075 36.7625 12.8625C35.475 13.7375 34.125 14.325 32.625 14.6875C31.3 14.9875 31.1625 14.9625 30.9875 14.3375C30.5875 12.8125 29.2625 10.6 28.1625 9.62498C26.525 8.16248 23.125 7.34998 21.15 7.93748C20.1 8.24998 19.3 9.12498 19.075 10.1875C19.0375 10.3875 18.775 13.45 18.5 16.9875L17.9875 23.4125L13.55 34.1125C11.1125 40 9.03751 44.9125 8.96251 45.025C8.87501 45.1375 7.35001 46.475 5.56251 48C3.77501 49.5125 2.03751 51.075 1.71251 51.475C0.125014 53.375 -0.387486 56.025 0.375014 58.375C0.700014 59.35 1.10001 60.0375 2.31251 61.625C3.70001 63.45 4.43751 63.85 6.63751 63.9625C9.95001 64.1375 13.775 63.325 17.075 61.75C19.45 60.625 16.5625 62.7125 49.2625 38.5375C58.4125 31.7625 58.7 31.55 60.25 29.925C61.55 28.5625 62.45 27.3375 63.125 26C63.9875 24.2875 64.1875 23.175 63.8125 22.1125C63.5375 21.35 63.125 20.8625 62 20C61.4625 19.575 60.7375 18.8875 60.4 18.475C59.8 17.75 59.6 17.425 58.0875 14.6625C56.2375 11.2875 53.625 7.87498 50.6375 4.89997C48.8125 3.08747 46.2125 0.937473 45.3 0.487473C44.3625 0.0249748 43.125 -0.100029 42.2 0.199974ZM44 2.24997C44.9875 2.52497 49.3 6.37498 51.4875 8.93748C53.275 11.025 56.05 14.9875 55.975 15.325C55.95 15.4 55.0375 16.1375 53.9375 16.9625C52.775 17.825 51.8 18.6625 51.6 18.95C51.125 19.6375 50.7375 20.55 50.6375 21.225L50.5625 21.8L49.3125 22.5C44.05 25.4375 40.025 29.5375 37.1125 34.925L36.4375 36.1625L35.0625 36.9875C29.875 40.1375 27.4125 42.25 23.1875 47.1875C17.15 54.2625 10.8125 58.125 5.27501 58.125C4.21251 58.125 2.81251 57.9375 2.52501 57.7625C2.43751 57.7125 2.30001 57.325 2.22501 56.9C1.98751 55.5875 2.45001 53.8875 3.33751 52.8125C3.65001 52.45 9.95001 47 10.4375 46.675C10.575 46.5875 12.9125 45.55 15.625 44.3625C18.4875 43.125 20.9125 41.9875 21.4 41.6625C22.45 40.975 23.475 39.85 24.0375 38.775C24.275 38.3125 26.1125 33.2375 28.1125 27.5125C30.125 21.775 31.775 17.0625 31.7875 17.05C31.8 17.025 32.25 16.925 32.7625 16.8125C34.1125 16.5375 35.3125 16.1125 36.5875 15.45C38.675 14.375 39.85 13.175 40.6 11.35C41.2625 9.74998 41.425 8.72498 41.425 5.91248C41.4375 3.03748 41.475 2.93747 42.5 2.39997C43.1125 2.09998 43.35 2.07497 44 2.24997ZM24.7 10.175C26.15 10.5625 27.1 11.325 27.975 12.7875C28.4125 13.5125 29.025 14.9 28.9375 14.975C28.9125 15 28.425 14.9625 27.8625 14.8875C24.925 14.4875 23.15 14.975 21.475 16.625C21 17.075 20.625 17.375 20.625 17.2875C20.625 16.475 21.1625 10.625 21.25 10.4C21.3125 10.25 21.5 10.0625 21.65 9.99998C22.0125 9.83748 23.8625 9.94998 24.7 10.175ZM28.075 17.0375L29.4625 17.1875L25.9375 27.2625C24 32.8 22.2625 37.6125 22.0625 37.95C21.55 38.825 20.5375 39.7875 19.65 40.2375C19 40.5625 12.0375 43.625 11.9375 43.625C11.925 43.625 12.3625 42.5125 12.925 41.1625L13.95 38.7125L16.95 37.8625C20.1875 36.9375 20.5 36.775 20.5 35.9875C20.5 35.5 20.0125 35 19.5375 35C19.3375 35 18.3 35.25 17.225 35.5625C16.15 35.875 15.2125 36.125 15.1375 36.125C15.075 36.125 15.2625 35.55 15.55 34.85L16.0875 33.5625L17.95 33.0375C21.9375 31.9 22 31.8625 22 31.0625C22 30.5125 21.5375 30 21.0625 30C20.875 30 19.95 30.225 19 30.5C18.05 30.775 17.2375 31 17.2125 31C17.15 31 18.1125 28.6 18.2375 28.475C18.275 28.425 19.3625 28.0875 20.625 27.725C23.175 27.0125 23.5 26.825 23.5 26.075C23.5 25.75 23.4125 25.575 23.1125 25.325C22.9 25.15 22.65 25 22.5375 25C22.3875 25 21.5 25.2375 19.475 25.825C19.3125 25.875 19.3875 25.6125 19.8 24.6125C20.1 23.9125 20.425 23.3 20.5125 23.25C20.6125 23.2 21.5375 22.9125 22.5625 22.625C23.9875 22.2375 24.5 22.0375 24.725 21.8C25.075 21.4125 25.075 20.8875 24.7375 20.45C24.4125 20.025 23.9 20.025 22.525 20.425C21.9625 20.5875 21.5 20.675 21.5 20.6125C21.5 20.2875 22.275 18.85 22.7 18.375C23.975 16.975 25 16.7125 28.075 17.0375ZM59.025 20.175C59.4125 20.6125 60.1625 21.2875 60.6875 21.6875C61.2125 22.075 61.7 22.55 61.7625 22.7375C62.275 24.0375 59.9125 27.65 56.9625 30.1C56.375 30.5875 56 30.8125 55.9625 30.7125C55.925 30.6375 55.225 28.925 54.4 26.925C52.7125 22.8375 52.575 22.4125 52.675 21.7C52.8375 20.6375 53.325 20.0625 55.25 18.625L57.05 17.2875L57.675 18.3375C58.025 18.9125 58.6375 19.7375 59.025 20.175ZM52.55 28.025C53.4375 30.175 54.1625 32 54.175 32.0875C54.1875 32.1625 50.1125 35.25 45.125 38.925C34.7375 46.6125 35.7375 46.1125 36.3125 43.325C37.8625 35.6375 42.5375 29.0375 49.3125 24.9625C50.075 24.5 50.75 24.125 50.8125 24.125C50.8875 24.125 51.6625 25.8875 52.55 28.025ZM35.075 39.775C34.3375 42.3375 33.75 45.375 33.75 46.65C33.75 46.95 33.675 47.2875 33.6 47.4C33.4125 47.625 19.25 58.0875 18.3125 58.6875C16.7125 59.7125 14.5 60.6625 12.5625 61.1625C10.6 61.6625 9.57501 61.8 7.56251 61.8C5.40001 61.8125 5.01251 61.7 4.37501 60.825L3.98751 60.3125L5.83751 60.225C8.01251 60.1375 9.75001 59.7375 11.875 58.8375C16.25 57 20.95 53.225 25.1375 48.1875C27.025 45.9125 28.9125 44.025 30.85 42.4625C32.2875 41.3125 34.8375 39.5125 35.05 39.5C35.1 39.5 35.1125 39.625 35.075 39.775Z" fill="#8F8F8F"/>
</svg>
